<?xml version="1.0" encoding="UTF-8"?>
<svg width="195px" height="195px" viewBox="0 0 195 195" version="1.1" xmlns="http://www.w3.org/2000/svg" xmlns:xlink="http://www.w3.org/1999/xlink">
    <!-- Generator: Sketch 53.2 (72643) - https://sketchapp.com -->
    <title>ikon11</title>
    <desc>Created with Sketch.</desc>
    <g id="Page-1" stroke="none" stroke-width="1" fill="none" fill-rule="evenodd">
        <g id="Artboard" transform="translate(-2192.000000, -1127.000000)">
            <g id="ikon11" transform="translate(2197.000000, 1132.000000)">
                <g id="user_big" stroke="#FF9E19" stroke-width="10">
                    <circle id="Oval" cx="92.5" cy="92.5" r="92.5"></circle>
                </g>
                <g id="Group-4" transform="translate(53.000000, 55.000000)" fill="#6E2798">
                    <polygon id="Fill-1" points="40.3834508 0.840787185 0.841116705 26.0061876 0.841116705 31.1104439 7.43150572 31.1104439 7.43150572 29.621016 40.3834508 8.65369336 73.3353959 29.621016 73.3353959 31.1104439 79.9290801 31.1104439 79.9290801 26.0061876"></polygon>
                    <polygon id="Fill-2" points="4.13729977 73.947643 76.6348741 73.947643 76.6348741 67.357254 4.13729977 67.357254"></polygon>
                    <polygon id="Fill-3" points="60.1556064 37.7005034 63.4508009 37.7005034 63.4508009 57.4716705 53.5652174 57.4716705 53.5652174 37.7005034 56.8604119 37.7005034 56.8604119 31.1101144 43.6796339 31.1101144 43.6796339 37.7005034 46.9748284 37.7005034 46.9748284 57.4716705 43.6796339 57.4716705 43.6796339 47.586087 37.0892449 47.586087 37.0892449 57.4716705 33.7940503 57.4716705 33.7940503 37.7005034 37.0892449 37.7005034 37.0892449 31.1101144 23.9084668 31.1101144 23.9084668 37.7005034 27.2036613 37.7005034 27.2036613 57.4716705 17.3180778 57.4716705 17.3180778 37.7005034 20.6132723 37.7005034 20.6132723 31.1101144 7.43249428 31.1101144 7.43249428 37.7005034 10.7276888 37.7005034 10.7276888 57.4716705 7.43249428 57.4716705 7.43249428 64.0620595 73.3363844 64.0620595 73.3363844 57.4716705 70.0411899 57.4716705 70.0411899 37.7005034 73.3363844 37.7005034 73.3363844 31.1101144 60.1556064 31.1101144"></polygon>
                </g>
            </g>
        </g>
    </g>
</svg>