<svg id="SvgjsSvg1001" width="288" height="288" xmlns="http://www.w3.org/2000/svg" version="1.1" xmlns:xlink="http://www.w3.org/1999/xlink" xmlns:svgjs="http://svgjs.com/svgjs"><defs id="SvgjsDefs1002"></defs><g id="SvgjsG1008"><svg xmlns="http://www.w3.org/2000/svg" viewBox="58 67.34 80 60.59" width="288" height="288"><g fill="#f0f0f0" fill-rule="evenodd" transform="translate(58 67)" class="colorfff svgShape"><g transform="translate(0 19.224)" fill="#6e2798" class="color000 svgShape"><polygon points="65.005 35.794 5.91 35.794 5.91 6.246 13.318 6.246 13.318 .337 0 .337 0 41.703 70.914 41.703 70.914 18.065 65.005 21.02" fill="#6e2798" class="color000 svgShape"></polygon><polygon points="8.864 32.839 38.412 32.839 38.412 26.93 8.864 26.93" fill="#6e2798" class="color000 svgShape"></polygon><polygon points="44.321 32.839 62.05 32.839 62.05 26.93 44.321 26.93" fill="#6e2798" class="color000 svgShape"></polygon></g><g transform="translate(9.086)" fill="#6e2798" class="color000 svgShape"><polygon points="65.005 6.246 65.005 35.794 5.91 35.794 5.91 6.246 53.186 6.246 53.186 .337 0 .337 0 41.703 70.914 41.703 70.914 .337 53.186 .337 53.186 6.246" fill="#6e2798" class="color000 svgShape"></polygon><polygon points="8.864 32.839 38.412 32.839 38.412 26.93 8.864 26.93" fill="#6e2798" class="color000 svgShape"></polygon><polygon points="44.321 32.839 62.05 32.839 62.05 26.93 44.321 26.93" fill="#6e2798" class="color000 svgShape"></polygon><polygon points="56.14 21.02 62.05 21.02 62.05 15.111 56.14 15.111" fill="#6e2798" class="color000 svgShape"></polygon></g></g></svg></g></svg>