<?xml version="1.0" encoding="UTF-8"?>
<svg width="195px" height="195px" viewBox="0 0 195 195" version="1.1" xmlns="http://www.w3.org/2000/svg" xmlns:xlink="http://www.w3.org/1999/xlink">
    <!-- Generator: Sketch 53.2 (72643) - https://sketchapp.com -->
    <title>ikon9</title>
    <desc>Created with Sketch.</desc>
    <g id="Page-1" stroke="none" stroke-width="1" fill="none" fill-rule="evenodd">
        <g id="Artboard" transform="translate(-1792.000000, -1127.000000)">
            <g id="ikon9" transform="translate(1797.000000, 1132.000000)">
                <g id="Group-17" transform="translate(51.000000, 37.000000)" fill="#fc9c1c">
                    <g id="Group-19">
                        <g id="Group-23-Copy">
                            <g id="Group-21">
                                <path d="M63.6227316,71.3384498 L63.6227316,80.4878049 L0,80.4878049 L0,0 L48.2662133,0 L63.6227316,15.379878 L63.6227316,34.3432314 L56.9256019,34.3432314 L56.9256019,23.4756098 L40.1827778,23.4756098 L40.1827778,6.71067073 L6.69712964,6.71067073 L6.69712964,73.7838415 L56.9256019,73.7838415 L56.9256019,71.3384498 L63.6227316,71.3384498 Z M46.8799075,8.09908537 L46.8799075,16.7682927 L55.5392961,16.7682927 L46.8799075,8.09908537 Z" id="Combined-Shape"></path>
                                <polygon id="Fill-6" points="13.4314656 44.737889 26.7619427 44.737889 26.7619427 37.971662 13.4314656 37.971662"></polygon>
                                <polygon id="Fill-7" points="13.3304771 55.4426661 36.5578235 55.4426661 36.5578235 48.6764391 13.3304771 48.6764391"></polygon>
                                <polygon id="Fill-7-Copy" points="13.3304771 66.1474432 36.5578235 66.1474432 36.5578235 59.3812161 13.3304771 59.3812161"></polygon>
                            </g>
                        </g>
                        <g id="cash,-money,-payment" transform="translate(40.000000, 38.000000)" fill-rule="nonzero">
                            <path d="M25,25.5555556 C28.9887232,25.5555556 32.2222222,22.0733258 32.2222222,17.7777778 C32.2222222,13.4822297 28.9887232,10 25,10 C21.0112768,10 17.7777778,13.4822297 17.7777778,17.7777778 C17.7824739,22.0712293 21.0132236,25.5504982 25,25.5555556 L25,25.5555556 Z M25,13.1111111 C27.3932339,13.1111111 29.3333333,15.2004489 29.3333333,17.7777778 C29.3333333,20.3551066 27.3932339,22.4444444 25,22.4444444 C22.6067661,22.4444444 20.6666667,20.3551066 20.6666667,17.7777778 C20.6692937,15.2016217 22.6078551,13.1139402 25,13.1111111 L25,13.1111111 Z" id="Shape"></path>
                            <path d="M49.9494949,0 L5.80808081,0 C5.16653792,0 4.64646465,0.516594519 4.64646465,1.15384615 L4.64646465,4.61538462 L1.16161616,4.61538462 C0.52007327,4.61538462 0,5.13197913 0,5.76923077 L0,28.8461538 C0,29.4834055 0.52007327,30 1.16161616,30 L45.3030303,30 C45.9445732,30 46.4646465,29.4834055 46.4646465,28.8461538 L46.4646465,25.3846154 L49.9494949,25.3846154 C50.5910378,25.3846154 51.1111111,24.8680209 51.1111111,24.2307692 L51.1111111,1.15384615 C51.1111111,0.516594519 50.5910378,0 49.9494949,0 Z M38.4622727,6.92307692 C39.1397475,9.71298826 41.3327155,11.8912876 44.1414141,12.5642308 L44.1414141,22.0511538 C41.3327155,22.724097 39.1397475,24.9023964 38.4622727,27.6923077 L8.00237374,27.6923077 C7.32489897,24.9023964 5.13193094,22.724097 2.32323232,22.0511538 L2.32323232,12.5642308 C5.13193094,11.8912876 7.32489897,9.71298826 8.00237374,6.92307692 L38.4622727,6.92307692 Z M44.1414141,10.1653846 C42.6220775,9.62058421 41.4257418,8.43225082 40.8772727,6.92307692 L44.1414141,6.92307692 L44.1414141,10.1653846 Z M5.58737374,6.92307692 C5.03890464,8.43225082 3.84256901,9.62058421 2.32323232,10.1653846 L2.32323232,6.92307692 L5.58737374,6.92307692 Z M2.32323232,24.45 C3.84256901,24.9948004 5.03890464,26.1831338 5.58737374,27.6923077 L2.32323232,27.6923077 L2.32323232,24.45 Z M40.8772727,27.6923077 C41.4257418,26.1831338 42.6220775,24.9948004 44.1414141,24.45 L44.1414141,27.6923077 L40.8772727,27.6923077 Z M48.7878788,23.0769231 L46.4646465,23.0769231 L46.4646465,5.76923077 C46.4646465,5.13197913 45.9445732,4.61538462 45.3030303,4.61538462 L6.96969697,4.61538462 L6.96969697,2.30769231 L48.7878788,2.30769231 L48.7878788,23.0769231 Z" id="Shape" stroke="#ffffff"></path>
                        </g>
                        <path d="M51.7693089,110.585366 L13.4146341,110.585366 L32.5919715,91 L51.7693089,110.585366 Z" id="Combined-Shape" transform="translate(32.591972, 100.792683) rotate(180.000000) translate(-32.591972, -100.792683) "></path>
                    </g>
                </g>
                <circle id="Oval" stroke="#fc9c1c" stroke-width="10" cx="92.5" cy="92.5" r="92.5"></circle>
            </g>
        </g>
    </g>
</svg>