<?xml version="1.0" encoding="UTF-8"?>
<svg width="195px" height="195px" viewBox="0 0 195 195" version="1.1" xmlns="http://www.w3.org/2000/svg" xmlns:xlink="http://www.w3.org/1999/xlink">
    <!-- Generator: Sketch 53.2 (72643) - https://sketchapp.com -->
    <title>ikon14</title>
    <desc>Created with Sketch.</desc>
    <g id="Page-1" stroke="none" stroke-width="1" fill="none" fill-rule="evenodd">
        <g id="Artboard" transform="translate(-2793.000000, -1127.000000)">
            <g id="ikon14" transform="translate(2798.000000, 1132.000000)">
                <g id="user_big" stroke="#FF9E19" stroke-width="10">
                    <circle id="Oval" cx="92.5" cy="92.5" r="92.5"></circle>
                </g>
                <g id="Group-12" transform="translate(53.000000, 62.000000)" fill="#6E2798">
                    <g id="cek" transform="translate(0.000000, 19.224377)">
                        <g id="Group">
                            <polygon id="Fill-341" points="65.0046168 35.7939058 5.90951062 35.7939058 5.90951062 6.24635272 13.3182566 6.24635272 13.3182566 0.336842105 0 0.336842105 0 41.7034164 70.9141274 41.7034164 70.9141274 18.065374 65.0046168 21.0201293"></polygon>
                            <polygon id="Fill-342" points="8.86426593 32.8391505 38.411819 32.8391505 38.411819 26.9296399 8.86426593 26.9296399"></polygon>
                            <polygon id="Fill-343" points="44.3213296 32.8391505 62.0498615 32.8391505 62.0498615 26.9296399 44.3213296 26.9296399"></polygon>
                        </g>
                    </g>
                    <g id="cek-copy" transform="translate(9.085873, 0.000000)">
                        <g id="Group">
                            <polygon id="Fill-341" points="65.0046168 6.24635272 65.0046168 35.7939058 5.90951062 35.7939058 5.90951062 6.24635272 53.1855956 6.24635272 53.1855956 0.336842105 0 0.336842105 0 41.7034164 70.9141274 41.7034164 70.9141274 0.336842105 53.1855956 0.336842105 53.1855956 6.24635272"></polygon>
                            <polygon id="Fill-342" points="8.86426593 32.8391505 38.411819 32.8391505 38.411819 26.9296399 8.86426593 26.9296399"></polygon>
                            <polygon id="Fill-343" points="44.3213296 32.8391505 62.0498615 32.8391505 62.0498615 26.9296399 44.3213296 26.9296399"></polygon>
                            <polygon id="Fill-344" points="56.1403509 21.0201293 62.0498615 21.0201293 62.0498615 15.1106187 56.1403509 15.1106187"></polygon>
                        </g>
                    </g>
                </g>
            </g>
        </g>
    </g>
</svg>