<?xml version="1.0" encoding="UTF-8"?>
<svg width="196px" height="197px" viewBox="0 0 196 197" version="1.1" xmlns="http://www.w3.org/2000/svg" xmlns:xlink="http://www.w3.org/1999/xlink">
    <!-- Generator: Sketch 53.2 (72643) - https://sketchapp.com -->
    <title>ikon13</title>
    <desc>Created with Sketch.</desc>
    <g id="Page-1" stroke="none" stroke-width="1" fill="none" fill-rule="evenodd">
        <g id="Artboard" transform="translate(-2592.000000, -1126.000000)">
            <g id="ikon13" transform="translate(2597.000000, 1131.000000)">
                <g id="user_big-copy-4" stroke="#FF9E19" stroke-width="10">
                    <circle id="Oval" cx="93" cy="93.5" r="93"></circle>
                </g>
                <g id="Group-4" transform="translate(56.000000, 57.000000)" fill="#6E2798">
                    <g id="cash,-money,-payment" fill-rule="nonzero">
                        <path d="M35.3365385,37.2869318 C41.1614167,37.2869318 45.8834135,32.3026019 45.8834135,26.1541193 C45.8834135,20.0056368 41.1614167,15.0213068 35.3365385,15.0213068 C29.5116602,15.0213068 24.7896635,20.0056368 24.7896635,26.1541193 C24.7965213,32.299601 29.5145032,37.279693 35.3365385,37.2869318 L35.3365385,37.2869318 Z M35.3365385,19.4744318 C38.8314654,19.4744318 41.6646635,22.4650298 41.6646635,26.1541193 C41.6646635,29.8432089 38.8314654,32.8338068 35.3365385,32.8338068 C31.8416115,32.8338068 29.0084135,29.8432089 29.0084135,26.1541193 C29.0122498,22.4667084 31.8432018,19.4784813 35.3365385,19.4744318 L35.3365385,19.4744318 Z" id="Shape"></path>
                        <path d="M72.3305015,0.958806818 L8.56984812,0.958806818 C7.64316295,0.958806818 6.89193619,1.70544733 6.89193619,2.62647509 L6.89193619,7.6294799 L1.85820039,7.6294799 C0.931515222,7.6294799 0.180288462,8.37612041 0.180288462,9.29714816 L0.180288462,42.6505135 C0.180288462,43.5715413 0.931515222,44.3181818 1.85820039,44.3181818 L65.6188538,44.3181818 C66.545539,44.3181818 67.2967657,43.5715413 67.2967657,42.6505135 L67.2967657,37.6475087 L72.3305015,37.6475087 C73.2571867,37.6475087 74.0084135,36.9008682 74.0084135,35.9798405 L74.0084135,2.62647509 C74.0084135,1.70544733 73.2571867,0.958806818 72.3305015,0.958806818 Z M55.7376304,10.9648164 C56.7162179,14.9971102 59.8838798,18.1454334 63.9409419,19.1180466 L63.9409419,32.8296151 C59.8838798,33.8022283 56.7162179,36.9505516 55.7376304,40.9828453 L11.7394238,40.9828453 C10.7608363,36.9505516 7.59317444,33.8022283 3.53611233,32.8296151 L3.53611233,19.1180466 C7.59317444,18.1454334 10.7608363,14.9971102 11.7394238,10.9648164 L55.7376304,10.9648164 Z M63.9409419,15.6509643 C61.7463158,14.8635574 60.0182528,13.1460443 59.2260093,10.9648164 L63.9409419,10.9648164 L63.9409419,15.6509643 Z M8.25104485,10.9648164 C7.45880136,13.1460443 5.73073843,14.8635574 3.53611233,15.6509643 L3.53611233,10.9648164 L8.25104485,10.9648164 Z M3.53611233,36.2966974 C5.73073843,37.0841043 7.45880136,38.8016174 8.25104485,40.9828453 L3.53611233,40.9828453 L3.53611233,36.2966974 Z M59.2260093,40.9828453 C60.0182528,38.8016174 61.7463158,37.0841043 63.9409419,36.2966974 L63.9409419,40.9828453 L59.2260093,40.9828453 Z M70.6525896,34.3121722 L67.2967657,34.3121722 L67.2967657,9.29714816 C67.2967657,8.37612041 66.545539,7.6294799 65.6188538,7.6294799 L10.2477601,7.6294799 L10.2477601,4.29414336 L70.6525896,4.29414336 L70.6525896,34.3121722 Z" id="Shape" stroke="#6E2798"></path>
                    </g>
                    <path d="M57.3546748,73.5853659 L19,73.5853659 L38.1773374,54 L57.3546748,73.5853659 Z" id="Combined-Shape" transform="translate(38.177337, 63.792683) rotate(180.000000) translate(-38.177337, -63.792683) "></path>
                </g>
            </g>
        </g>
    </g>
</svg>