<?xml version="1.0" encoding="UTF-8"?>
<svg width="195px" height="196px" viewBox="0 0 195 196" version="1.1" xmlns="http://www.w3.org/2000/svg" xmlns:xlink="http://www.w3.org/1999/xlink">
    <!-- Generator: Sketch 53.2 (72643) - https://sketchapp.com -->
    <title>ikon8</title>
    <desc>Created with Sketch.</desc>
    <g id="Page-1" stroke="none" stroke-width="1" fill="none" fill-rule="evenodd">
        <g id="Artboard" transform="translate(-1591.000000, -1126.000000)">
            <g id="ikon8" transform="translate(1596.000000, 1131.000000)">
                <g id="Group-8" transform="translate(60.565476, 51.205357)" fill="#6E2798">
                    <path d="M0,1.10018564 L0,81.4870904 L63.8690476,81.4870904 L63.8690476,16.4607834 L48.4530764,1.10018564 L0,1.10018564 Z M6.72305764,7.80244382 L40.3383459,7.80244382 L40.3383459,24.5463662 L57.14599,24.5463662 L57.14599,74.7915311 L6.72305764,74.7915311 L6.72305764,7.80244382 Z M47.0614035,9.18911793 L55.754317,17.8474575 L47.0614035,17.8474575 L47.0614035,9.18911793 Z" id="Fill-1"></path>
                    <polygon id="Fill-2" points="13.4461153 64.7408234 20.1691729 64.7408234 20.1691729 58.0419147 13.4461153 58.0419147"></polygon>
                    <polygon id="Fill-3" points="23.5307018 64.7408234 30.2537594 64.7408234 30.2537594 51.343006 23.5307018 51.343006"></polygon>
                    <polygon id="Fill-4" points="33.6152882 64.7408234 40.3383459 64.7408234 40.3383459 41.2946429 33.6152882 41.2946429"></polygon>
                    <polygon id="Fill-5" points="43.6998747 64.7408234 50.4229323 64.7408234 50.4229323 44.6440972 43.6998747 44.6440972"></polygon>
                    <polygon id="Fill-6" points="13.4461153 21.1979167 26.8922306 21.1979167 26.8922306 14.4990079 13.4461153 14.4990079"></polygon>
                    <polygon id="Fill-7" points="13.4461153 31.2462798 33.6152882 31.2462798 33.6152882 24.547371 13.4461153 24.547371"></polygon>
                </g>
                <circle id="Oval" stroke="#FF9E19" stroke-width="10" cx="92.5" cy="93.0505952" r="92.5"></circle>
            </g>
        </g>
    </g>
</svg>