<?xml version="1.0" encoding="UTF-8"?>
<svg width="197px" height="196px" viewBox="0 0 197 196" version="1.1" xmlns="http://www.w3.org/2000/svg" xmlns:xlink="http://www.w3.org/1999/xlink">
    <!-- Generator: Sketch 53.2 (72643) - https://sketchapp.com -->
    <title>ikon15</title>
    <desc>Created with Sketch.</desc>
    <g id="Page-1" stroke="none" stroke-width="1" fill="none" fill-rule="evenodd">
        <g id="Artboard" transform="translate(-2994.000000, -1127.000000)">
            <g id="ikon15" transform="translate(2999.000000, 1132.000000)">
                <g id="Group-4">
                    <g id="user_big-copy-2" stroke="#FF9E19" stroke-width="10">
                        <circle id="Oval" cx="93.5" cy="93" r="93"></circle>
                    </g>
                    <g id="cart" transform="translate(44.000000, 53.000000)" fill="#6E2798" fill-rule="nonzero">
                        <path d="M2.80946602,8.18340408 L7.09572214,3.89866505 C7.74271845,3.25166874 8.79247573,3.25166874 9.43947204,3.89866505 L26.9872573,21.4449332 L61.2704794,55.7281553 C56.1202973,62.1594357 57.1586773,71.5480885 63.5899575,76.6982707 C70.0212379,81.8492113 79.4098909,80.8100728 84.5600728,74.3787924 C88.9252124,68.9282464 88.9252124,61.1787014 84.5600728,55.7281553 L98.9517596,41.3364683 C99.5881371,40.6780948 99.5699332,39.6283375 98.9115594,38.9927184 C98.2691142,38.3722695 97.2504551,38.3722695 96.6080097,38.9927184 L96.1218144,39.4781553 L69.1140777,12.4704186 C68.4670814,11.8234223 67.4180825,11.8234223 66.7703278,12.4704186 L62.9695085,16.2712379 L47.5652307,0.86696 C46.9174757,0.219963495 45.8684769,0.219963495 45.2207221,0.86696 L39.7625911,6.32509107 L32.4461468,13.6422936 L28.1591322,17.9285497 L11.7839806,1.55263961 C9.84147456,-0.388349515 6.69371961,-0.388349515 4.75197204,1.55263961 L0.465716117,5.83965417 C-0.170661359,6.49802796 -0.152457476,7.54778524 0.505916311,8.18340408 C1.14836155,8.8038532 2.16702058,8.8038532 2.80946602,8.18340408 Z M72.9156553,76.6322816 C66.5071299,76.6322816 61.3121965,71.4373483 61.3121965,65.0288229 C61.3121965,58.6202973 66.5071299,53.4253641 72.9156553,53.4253641 C79.3241808,53.4253641 84.5191142,58.6202973 84.5191142,65.0288229 C84.5115291,71.4343144 79.3211468,76.6246967 72.9156553,76.6322816 Z M67.9429612,15.9860437 L93.7788229,41.8219052 L82.2163227,53.3836468 C76.7839806,49.0185072 69.0473301,49.0185072 63.6142293,53.3836468 L47.0797938,36.8492113 L53.0241202,30.9048847 L61.3121965,39.1929612 L70.2867111,30.2184466 L61.9986348,21.9303701 L64.1413835,19.7868629 L67.9429612,15.9860437 Z M55.3678701,28.5611348 L59.6548847,24.2741202 L65.5992113,30.2184466 L61.3121965,34.5054612 L55.3678701,28.5611348 Z M39.7625911,11.0133495 L42.3915351,13.6422936 L39.7625911,16.2712379 L37.1336468,13.6422936 L39.7625911,11.0133495 Z M34.7898969,15.9860437 L39.7625911,20.9587379 L47.0797938,13.6422936 L42.106341,8.66884097 L46.3933555,4.38258485 L60.6257584,18.614988 L59.6541262,19.5866202 L50.6796117,28.5603763 L44.7360437,34.5047027 L30.5036408,20.2722998 L34.7898969,15.9860437 Z" id="Shape" stroke="#6E2798" stroke-width="2"></path>
                        <path d="M72.9156553,56.7407464 C68.3381371,56.7407464 64.6275788,60.4513047 64.6275788,65.0288229 C64.6275788,69.606341 68.3381371,73.3168992 72.9156553,73.3168992 C77.4931736,73.3168992 81.2037318,69.606341 81.2037318,65.0288229 C81.1984223,60.4535802 77.4908981,56.7460559 72.9156553,56.7407464 L72.9156553,56.7407464 Z M72.9156553,70.0015169 C70.1691445,70.0015169 67.9429612,67.7753338 67.9429612,65.0288229 C67.9429612,62.2823118 70.1691445,60.0561285 72.9156553,60.0561285 C75.6621662,60.0561285 77.8883495,62.2823118 77.8883495,65.0288229 C77.8883495,67.7753338 75.6621662,70.0015169 72.9156553,70.0015169 Z" id="Shape"></path>
                    </g>
                </g>
            </g>
        </g>
    </g>
</svg>