<?xml version="1.0" encoding="utf-8"?>
<!-- Svg Vector Icons : http://www.onlinewebfonts.com/icon -->
<!DOCTYPE svg PUBLIC "-//W3C//DTD SVG 1.1//EN" "http://www.w3.org/Graphics/SVG/1.1/DTD/svg11.dtd">
<svg version="1.1" xmlns="http://www.w3.org/2000/svg" xmlns:xlink="http://www.w3.org/1999/xlink" x="0px" y="0px" viewBox="0 0 1000 1000" enable-background="new 0 0 1000 1000" xml:space="preserve">
<metadata> Svg Vector Icons : http://www.onlinewebfonts.com/icon </metadata>
<g><path d="M928.8,836.9H331.6h-30.6H71.2c-33.8,0-61.2-27.5-61.2-61.3v-61.3v-61.3v-61.3c50.8,0,91.9-41.2,91.9-91.9c0-50.8-41.1-91.9-91.9-91.9v-61.3v-61.2v-61.2c0-33.9,27.4-61.3,61.2-61.3h229.7h30.6h597.2c33.8,0,61.2,27.4,61.2,61.3v91.9v30.6v61.3c-50.8,0-91.9,41.1-91.9,91.9c0,50.7,41.1,91.9,91.9,91.9v61.3V745v30.6C990,809.4,962.6,836.9,928.8,836.9z M928.8,640.2c-54-23.7-91.9-77.5-91.9-140.2c0-62.8,37.8-116.6,91.9-140.2V255c0-16.9-13.7-30.6-30.6-30.6H346.9v45.9c0,8.4-6.8,15.3-15.3,15.3h-30.6c-8.5,0-15.3-6.9-15.3-15.3v-45.9H101.9c-16.9,0-30.6,13.7-30.6,30.6v104.8c54,23.6,91.9,77.4,91.9,140.2c0,62.7-37.8,116.5-91.9,140.2V745c0,16.9,13.7,30.6,30.6,30.6h183.7v-45.9c0-8.5,6.8-15.3,15.3-15.3h30.6c8.5,0,15.3,6.8,15.3,15.3v45.9h551.3c16.9,0,30.6-13.7,30.6-30.6V640.2L928.8,640.2z M331.6,653.1h-30.6c-8.5,0-15.3-6.9-15.3-15.3v-91.9c0-8.5,6.8-15.3,15.3-15.3h30.6c8.5,0,15.3,6.8,15.3,15.3v91.9C346.9,646.2,340,653.1,331.6,653.1z M331.6,469.4h-30.6c-8.5,0-15.3-6.9-15.3-15.3v-91.9c0-8.5,6.8-15.3,15.3-15.3h30.6c8.5,0,15.3,6.9,15.3,15.3v91.9C346.9,462.5,340,469.4,331.6,469.4z"/></g>
</svg>