<svg xmlns="http://www.w3.org/2000/svg" xmlns:xlink="http://www.w3.org/1999/xlink" version="1.1" viewBox="0 258.07 627 141.93">
    <!-- Generator: Sketch 52.2 (67145) - http://www.bohemiancoding.com/sketch -->
    <title>logo_Ust</title>
    <desc>Created with Sketch.</desc>
    <g id="Page-1" stroke="none" stroke-width="1" fill="none" fill-rule="evenodd">
        <g id="logo_Ust" transform="translate(-1.000000, 0.000000)">
            <g id="Group-3" transform="translate(0.000000, 258.000000)" fill="#ffffff">
                <path d="M64.6437185,60.6851236 L64.6437185,91.2913258 C64.6437185,97.9609888 65.8866074,102.88773 68.3786815,106.071551 C64.5920889,109.456719 60.0109037,111.148045 54.6338667,111.148045 C49.4532741,111.148045 45.9172741,109.952539 44.0258667,107.565303 C42.1332,105.176809 41.1874963,101.54373 41.1874963,96.6660674 L41.1874963,64.8643596 C41.1874963,61.4829663 40.7404593,58.9937978 39.8438667,57.4006292 C38.9472741,55.8087191 37.2032,55.0108764 34.614163,55.0108764 C33.1206815,55.0108764 31.4257185,55.4110562 29.5343111,56.2051236 C27.6416444,57.0029663 25.6998667,58.2966292 23.7089778,60.0873708 L23.7089778,109.952539 C20.4210519,110.550292 16.6344593,110.848539 12.354237,110.848539 C8.07023704,110.848539 4.28616296,110.550292 0.999496296,109.952539 L0.999496296,1.11370787 L2.04594074,0.0692134831 L11.0093481,0.0692134831 C15.7894963,0.0692134831 19.1000889,1.11370787 20.9449037,3.20395506 C22.7859407,5.29420225 23.7089778,8.92853933 23.7089778,14.103191 L23.7089778,42.3208989 C30.3792741,36.8492584 37.0546074,34.1096629 43.7274222,34.1096629 C50.3989778,34.1096629 55.5531259,36.5245843 59.1911259,41.3506517 C62.8253481,46.179236 64.6437185,52.622382 64.6437185,60.6851236" id="Fill-1"/>
            </g>
            <path d="M104.40702,321.913481 L123.815679,321.913481 L123.815679,320.269562 C123.815679,316.588996 123.005268,313.549131 121.389441,311.161294 C119.771116,308.772199 117.344877,307.576393 114.110725,307.576393 C110.975221,307.576393 108.646382,308.696675 107.127953,310.937238 C105.609525,313.177802 104.701715,316.83571 104.40702,321.913481 M143.080737,338.041762 L104.555616,338.041762 C104.751663,342.475056 105.88549,345.924013 107.949603,348.386116 C110.013716,350.849477 113.4102,352.079269 118.131563,352.079269 C120.494117,352.079269 123.223792,351.743184 126.324332,351.068498 C129.421127,350.397588 132.988684,349.288635 137.023257,347.747933 C140.268648,351.133953 142.287808,355.715779 143.074493,361.487118 C135.171424,367.162792 125.493942,370 114.037051,370 C107.814743,370 102.605135,369.003075 98.4069811,367.013002 C94.2088268,365.022928 90.8011043,362.233553 88.1850623,358.651169 C85.5677716,355.066267 83.7171873,350.836889 82.6308119,345.957999 C81.541939,341.080368 81,335.752107 81,329.976992 C81,324.403276 81.6668097,319.251239 83.0004292,314.520881 C84.3340487,309.79304 86.3582034,305.687019 89.0753907,302.201558 C91.7900806,298.717356 95.2452539,295.979589 99.4446569,293.986998 C103.641562,291.996925 108.556475,291 114.185648,291 C118.925741,291 123.19632,291.798043 127.001132,293.390354 C130.800948,294.982664 134.037598,297.175396 136.703588,299.960995 C139.370827,302.749112 141.419956,306.083523 142.852223,309.966747 C144.283242,313.848712 145,318.081866 145,322.659916 C145,328.734612 144.358164,333.860216 143.080737,338.041762" id="Fill-4" fill="#ffffff"/>
            <path d="M157,362.682808 C157.099632,360.09479 157.771834,357.256278 159.02165,354.16979 C160.266421,351.085819 161.736942,348.645076 163.435733,346.852597 C171.413873,351.03421 178.345244,353.125016 184.23237,353.125016 C187.024593,353.125016 189.169837,352.65298 190.665581,351.705131 C192.162585,350.761058 192.910457,349.490966 192.910457,347.89863 C192.910457,344.911584 190.613873,342.672243 186.028271,341.178091 L177.797898,338.041252 C165.328744,333.463129 159.094798,325.996144 159.094798,315.641555 C159.094798,308.075127 161.71298,302.077119 166.951865,297.645013 C172.186968,293.216683 179.243195,291 188.123069,291 C192.510667,291 197.347241,291.623088 202.636574,292.866746 C207.922123,294.111663 212.260536,295.579382 215.654335,297.272419 C215.852338,300.06058 215.30247,303.121893 214.007252,306.456358 C212.710772,309.792081 211.112874,312.156039 209.218602,313.54949 C200.840673,309.768164 193.857593,307.874984 188.271886,307.874984 C186.27546,307.874984 184.755754,308.323104 183.708986,309.219344 C182.662218,310.114324 182.137572,311.261058 182.137572,312.654509 C182.137572,315.043642 184.031844,316.935564 187.822911,318.329015 L197.100053,321.614388 C210.365003,326.29573 217,334.30776 217,345.658031 C217,353.125016 214.25444,359.048757 208.770888,363.429254 C203.283552,367.808493 195.452969,370 185.279138,370 C175.105307,370 165.679348,367.561775 157,362.682808" id="Fill-6" fill="#ffffff"/>
            <path d="M251.76598,344.976925 C251.76598,349.625302 254.4626,351.946366 259.854575,351.946366 C262.648404,351.946366 265.79446,350.515231 269.29148,347.646711 L269.29148,335.783912 C267.293003,335.685169 265.621503,335.611425 264.273193,335.560179 C262.926146,335.512683 261.899764,335.486435 261.202885,335.486435 C254.910774,335.486435 251.76598,338.651182 251.76598,344.976925 M297,356.097284 C296.498803,358.174617 295.551956,360.399439 294.15441,362.770499 C292.75434,365.144059 291.307558,366.87267 289.810278,367.961333 C282.820025,367.762599 277.426786,365.144059 273.63435,360.103213 C267.14277,366.033988 260.103281,369 252.515883,369 C248.621187,369 245.225164,368.3813 242.329076,367.145149 C239.431725,365.911497 236.987598,364.25413 234.991645,362.178047 C232.993168,360.103213 231.494625,357.707155 230.49728,354.986123 C229.498673,352.267591 229,349.425318 229,346.460556 C229,342.210897 229.772627,338.477446 231.321668,335.263953 C232.868184,332.05296 234.991645,329.383174 237.688265,327.255845 C240.382359,325.131015 243.529677,323.526144 247.122644,322.437481 C250.718137,321.350068 254.561072,320.806362 258.656499,320.806362 C260.951655,320.806362 262.97412,320.83136 264.72263,320.880106 C266.468615,320.931352 267.992407,321.005096 269.29148,321.102588 L269.29148,318.252816 C269.29148,311.948321 266.044428,308.794824 259.555372,308.794824 C255.361473,308.794824 248.021518,310.424694 237.536769,313.688182 C234.542209,310.228459 232.644728,304.842641 231.846852,297.524477 C234.243005,296.634549 236.913113,295.795866 239.858437,295.004679 C242.802499,294.213493 245.824833,293.521048 248.920391,292.927346 C252.013423,292.334893 255.061007,291.866181 258.056829,291.518708 C261.052652,291.173736 263.748009,291 266.145425,291 C269.638657,291 273.008169,291.49621 276.255222,292.482381 C279.498487,293.472302 282.345339,294.980931 284.791991,297.005769 C287.238642,299.033106 289.186622,301.654146 290.634666,304.865139 C292.080185,308.078632 292.806101,311.908325 292.806101,316.357968 L292.806101,346.460556 C292.806101,351.007692 294.202384,354.221184 297,356.097284" id="Fill-8" fill="#ffffff"/>
            <path d="M347.518809,309.664427 C343.367087,309.664427 339.756677,311.656725 336.692579,315.637547 L336.692579,348.487189 C340.449256,350.777766 343.663371,351.920538 346.333674,351.920538 C353.056938,351.920538 356.41857,344.405683 356.41857,329.373457 C356.41857,316.234103 353.451983,309.664427 347.518809,309.664427 M350.291624,369.240823 C345.758609,369.240823 341.225594,368.19622 336.692579,366.105754 L336.692579,385.964553 C336.692579,391.138488 335.752472,394.774464 333.874758,396.86493 C331.994545,398.954138 328.684169,400 323.938629,400 L315.038868,400 L314,398.954138 L314,293.238976 L315.038868,292.194372 L321.119559,292.194372 C326.75645,292.194372 330.956927,294.635976 333.725992,299.511633 C339.34413,293.836791 346.193658,291 354.277077,291 C358.416297,291 362.061712,291.921265 365.21457,293.761278 C368.369928,295.605067 371.055234,298.217835 373.274236,301.602099 C375.491988,304.986364 377.167178,309.066611 378.299807,313.8441 C379.432436,318.622848 380,323.999411 380,329.971273 C380,335.944392 379.236163,341.370039 377.70849,346.245696 C376.182066,351.12387 374.089328,355.256977 371.429026,358.639983 C368.768724,362.025506 365.639618,364.638274 362.042959,366.479546 C358.446301,368.319558 354.527105,369.240823 350.291624,369.240823" id="Fill-10" fill="#ffffff"/>
            <path d="M436.519459,323.748532 C436.519459,317.795052 435.806452,313.279441 434.385432,310.202953 C432.960666,307.12772 430.091155,305.588222 425.77565,305.588222 C417.923829,305.588222 414.000416,313.826484 414.000416,330.299242 C414.000416,338.435874 415.130489,344.341676 417.394381,348.012885 C419.657024,351.685348 423.29948,353.520952 428.318002,353.520952 C430.872841,353.520952 433.62872,352.975164 436.580645,351.882333 C439.53257,350.792012 442.583143,349.054273 445.732362,346.672881 C447.305723,347.665337 448.85411,349.277607 450.380021,351.510946 C451.904683,353.743031 452.866181,355.853411 453.258273,357.837068 C449.90052,361.210916 445.777315,363.917271 440.889906,365.949861 C436,367.98245 430.889074,369 425.555879,369 C415.185432,369 407.33486,365.453006 402.000416,358.357762 C396.66847,351.263773 394,341.513617 394,329.107292 C394,322.757331 394.865349,317.199077 396.593548,312.435038 C398.320499,307.672254 400.668054,303.703685 403.629969,300.526823 C406.593132,297.35247 409.97461,294.969823 413.779396,293.382647 C417.579188,291.79547 421.556296,291 425.704475,291 C430.048699,291 433.97461,291.622324 437.482206,292.860698 C440.986056,294.102836 443.94922,295.789132 446.370447,297.922097 C448.789178,300.057571 450.665973,302.561922 451.999584,305.438915 C453.333195,308.318417 454,311.344717 454,314.520324 C454,317.697187 453.185848,320.15386 451.556296,321.889089 C449.925494,323.625573 447.48179,324.493815 444.221436,324.493815 C441.259521,324.493815 438.689698,324.246642 436.519459,323.748532" id="Fill-12" fill="#ffffff"/>
            <path d="M474.544586,264.931532 C476.823471,263.64593 480.095137,263 484.359585,263 C486.836525,263 488.843397,263.200289 490.38271,263.594607 C491.918262,263.991428 493.032635,264.462106 493.728334,265.006641 C494.420272,265.549923 494.867776,266.565135 495.065831,268.049774 C495.263886,269.535664 495.362913,271.070375 495.362913,272.653906 C495.065831,277.70368 494.446596,280.476424 493.505209,280.970887 C492.561314,281.467853 489.463886,281.961063 484.210417,282.455525 C478.656105,282.258992 475.410763,281.515421 474.468122,280.228567 C473.526734,278.941714 473.056667,276.418078 473.056667,272.653906 C473.056667,269.783522 473.551805,267.209814 474.544586,264.931532 M497,308.594428 L497,367.256429 C495.513335,367.554358 493.951459,367.752143 492.315626,367.851035 C490.679793,367.948676 489.017636,368 487.332915,368 C485.645688,368 483.987292,367.948676 482.352712,367.851035 C480.715626,367.752143 479.102356,367.554358 477.517917,367.256429 L477.517917,315.574482 C477.517917,310.13039 475.287919,307.406466 470.825416,307.406466 L468.892501,307.406466 C468.298336,305.229581 468,302.951299 468,300.575376 C468,298.397239 468.298336,296.118957 468.892501,293.743035 C471.172639,293.54525 473.279793,293.371249 475.212708,293.223536 C477.146877,293.074572 478.80402,293.000715 480.195418,293.000715 L482.722498,293.000715 C487.185001,293.000715 490.679793,294.387713 493.208126,297.159206 C495.735206,299.93195 497,303.744942 497,308.594428" id="Fill-14" fill="#ffffff"/>
            <path d="M581.896554,317.383379 L581.896554,349.741933 C581.896554,356.076518 582.931867,360.778348 585,363.843672 C581.845474,366.616225 578.053066,368 573.619038,368 C569.381857,368 566.474012,367.035362 564.897995,365.106085 C563.320732,363.175556 562.533346,360.132754 562.533346,355.976426 L562.533346,321.39082 C562.533346,316.937969 561.99015,313.820097 560.907495,312.039708 C559.822348,310.258067 557.804049,309.367246 554.847615,309.367246 C549.62371,309.367246 544.746155,311.741933 540.213704,316.492559 L540.213704,366.960292 C538.736111,367.256815 537.185011,367.455749 535.559159,367.55459 C533.932062,367.65218 532.281293,367.703477 530.606852,367.703477 C528.92992,367.703477 527.281643,367.65218 525.654545,367.55459 C524.02994,367.455749 522.477594,367.256815 521,366.960292 L521,293.483867 L521.885809,292.44541 L529.27627,292.44541 C534.794199,292.44541 538.241503,295.414395 539.623165,301.352364 C546.815534,295.117872 553.960561,292 561.054507,292 C568.150944,292 573.398521,294.300869 576.797236,298.902608 C580.197197,303.504346 581.896554,309.663769 581.896554,317.383379" id="Fill-16" fill="#ffffff"/>
            <path d="M605.544586,264.931532 C607.823471,263.64593 611.095137,263 615.359585,263 C617.836525,263 619.843397,263.200289 621.38271,263.594607 C622.918262,263.991428 624.032635,264.462106 624.728334,265.006641 C625.420272,265.549923 625.867776,266.565135 626.065831,268.049774 C626.263886,269.535664 626.362913,271.070375 626.362913,272.653906 C626.065831,277.70368 625.446596,280.476424 624.505209,280.970887 C623.561314,281.467853 620.463886,281.961063 615.210417,282.455525 C609.656105,282.258992 606.410763,281.515421 605.469375,280.228567 C604.526734,278.941714 604.056667,276.418078 604.056667,272.653906 C604.056667,269.783522 604.551805,267.209814 605.544586,264.931532 M628,308.594428 L628,367.256429 C626.513335,367.554358 624.951459,367.752143 623.315626,367.851035 C621.679793,367.948676 620.018889,368 618.334169,368 C616.645688,368 614.987292,367.948676 613.352712,367.851035 C611.715626,367.752143 610.103609,367.554358 608.517917,367.256429 L608.517917,315.574482 C608.517917,310.13039 606.287919,307.406466 601.825416,307.406466 L599.892501,307.406466 C599.298336,305.229581 599,302.951299 599,300.575376 C599,298.397239 599.298336,296.118957 599.892501,293.743035 C602.172639,293.54525 604.279793,293.371249 606.212708,293.223536 C608.146877,293.074572 609.805273,293.000715 611.195418,293.000715 L613.722498,293.000715 C618.185001,293.000715 621.679793,294.387713 624.208126,297.159206 C626.735206,299.93195 628,303.744942 628,308.594428" id="Fill-18" fill="#ffffff"/>
            <!-- <path d="M387.513595,31.4864046 C367.21038,11.1819353 340.215049,0 311.498747,0 C282.784951,0 255.788367,11.1819353 235.485151,31.4864046 C215.183189,51.7896204 204,78.786204 204,107.501253 C204,136.215049 215.183189,163.21038 235.485151,183.513595 C240.465067,188.494765 245.84859,192.921914 251.559261,196.773734 C251.445198,192.814118 251.662044,188.940989 252.206036,185.168136 C248.785399,182.547193 245.511415,179.686844 242.410405,176.588341 C223.95852,158.133949 213.794378,133.597867 213.794378,107.501253 C213.794378,81.403386 223.95852,56.866051 242.410405,38.4116587 C260.866051,19.9585199 285.402133,9.79563103 311.498747,9.79563103 C337.597867,9.79563103 362.133949,19.9585199 380.588341,38.4116587 C399.04148,56.866051 409.204369,81.403386 409.204369,107.501253 C409.204369,133.597867 399.04148,158.133949 380.588341,176.588341 C362.939911,194.235518 339.729968,204.293118 314.910609,205.140444 C312.005136,208.212624 309.517058,211.487862 307.490246,214.921033 C308.823906,214.968664 310.15882,215 311.498747,215 C340.215049,215 367.21038,203.819318 387.513595,183.513595 C407.818065,163.21038 419,136.215049 419,107.501253 C419,78.786204 407.818065,51.7896204 387.513595,31.4864046" id="Fill-20" fill="#FF9E19"></path> -->
            <!-- <path d="M355.941135,149.769638 C355.065128,150.159973 351.912508,150.616614 350.493076,150.850565 C348.59297,150.959408 350.493076,150.850565 348.763653,150.983179 L343.538988,150.983179 C334.740015,149.812175 326.267347,147.352566 318.063255,143.897104 C315.096379,142.647282 312.617706,142.572218 309.581803,144.513882 C299.411089,151.018209 288.631687,156.091308 276.425324,156.803168 C274.788772,156.883237 273.690626,156.903254 272.662762,156.841952 C260.335916,170.631274 255.441322,188.370232 259.279186,208.299818 C262.733012,226.222684 279.09727,249.472617 301.124196,261 C295.913337,252.754181 293.669354,242.79189 294.871667,232.386719 C297.050388,213.521795 310.156604,196.545991 330.83187,185.809286 C342.517398,179.741584 356.70921,169.117476 357.937878,152.973635 C358.049576,151.528646 357.99812,150.061138 357.882657,148.583622 C357.240085,148.981463 356.672814,149.445611 355.941135,149.769638" id="Fill-22" fill="#6E2798"></path> -->
            <!-- <path d="M295.50254,68 C304.045637,68 311,60.1491275 311,50.5006194 C311,40.8508725 304.045637,33 295.50254,33 C286.954363,33 280,40.8508725 280,50.5006194 C280,60.1491275 286.954363,68 295.50254,68" id="Fill-24" fill="#6E2798"></path>
            <path d="M281.579249,40.143033 C282.004465,39.4501573 282.492769,38.8151238 283,38.1997812 C280.870135,36.6392725 278.024847,35 275.511404,35 C271.143162,35 270,37.2201559 270,39.3258581 C270,41.9546014 271.196156,44 273.416869,44 C276.113268,44 277.67029,39.6766033 278.986315,39.6766033 C279.769873,39.6766033 280.673299,39.7652126 281.579249,40.143033" id="Fill-26" fill="#6E2798"></path>
            <path d="M363.194409,123.077144 C360.732878,113.346652 353.85283,106.655614 346.925325,100.049352 C339.816733,93.2710453 329.529756,84.9231434 322.046502,78.2296122 C321.022425,77.4342177 322.911972,78.8554555 322.046502,78.2296122 C317.144671,73.6853914 310.660516,71 303.132302,71 C294.639958,71 287.110495,74.7151654 281.910183,80.4873855 C279.318769,83.0755343 277.229402,86.3431345 275.243692,90.2029171 C272.171462,96.4538699 269.070507,102.688616 266.155635,109.01063 C262.372795,117.212668 259.018319,125.712668 260.264695,134.958193 C261.807055,146.406638 267.634302,152.221245 278.646875,150.785047 C296.518264,148.452472 310.084785,138.682086 324.931401,128.522729 C326.427553,127.499188 331.261945,124.889846 333.514914,124.906053 C326.688567,120.29825 320.169444,120.613665 312.447655,122.895126 C310.247138,123.376352 309.220564,124.004689 307.645733,124.631779 C302.440426,126.7013 297.17767,128.523976 291.49779,128.42424 C286.037712,128.326997 283.381357,125.978215 282.381008,120.03395 C286.953137,128.618725 293.578415,125.631632 299.873989,123.577071 C303.003668,122.55727 305.928531,120.915367 308.944563,119.55023 C317.194626,115.812624 326.092854,113.998676 333.573611,119.633759 C338.88757,123.636912 343.848099,124.432307 349.793989,123.885006 C351.193977,123.756596 352.916174,123.474841 354.025175,125.660306 C341.197988,127.223668 328.887835,129.142339 319.709858,139.172039 C330.334031,143.993027 341.349101,146.803088 348.65002,146.612343 C354.40733,146.37921 359.454031,144.726086 361.96177,139.013708 C364.208495,133.899745 364.564424,128.491561 363.194409,123.077144" id="Fill-28" fill="#6E2798"></path> -->
        </g>
    </g>
</svg>